# xmcd
#
# Track frame offsets: 
#        150
#        12282
#        21836
#        38412
#        51676
#        69002
#        93541
#        101385
#        114341
#        129978
#        149556
#        160739
#        182528
#        191757
#
# Disc length: 2814 seconds
#
# Revision: 0
# Processed by: cddbd v1.4PL0 Copyright (c) Steve Scherf et al.
# Submitted via: ExactAudioCopy v0.90a11
#
DISCID=b30afc0e
DTITLE=Helander Co. - Smooth And Rough
DYEAR=1900
DGENRE=
TTITLE0=Ax Fo' Mo'
TTITLE1=Last Call
TTITLE2=Reach Me
TTITLE3=Aberdeen Mississippi Blues
TTITLE4=I Feel So Good
TTITLE5=Life Is Hard
TTITLE6=Blues For Sam And Jake
TTITLE7=Diddley Diddley Doo
TTITLE8=No Looking Back
TTITLE9=Hotel By The Sea
TTITLE10=My Black Rabbit
TTITLE11=One More Mile
TTITLE12=Lovey Dovey Lovely One
TTITLE13=Hey Joe
EXTD=
EXTT0=
EXTT1=
EXTT2=
EXTT3=
EXTT4=
EXTT5=
EXTT6=
EXTT7=
EXTT8=
EXTT9=
EXTT10=
EXTT11=
EXTT12=
EXTT13=
PLAYORDER=
